<svg id="Capa_1" enable-background="new 0 0 512 512" height="512" viewBox="0 0 512 512" width="512" xmlns="http://www.w3.org/2000/svg"><g><circle cx="256" cy="256" fill="#0052be" r="256"/><path d="m256 0v512c141.385 0 256-114.615 256-256s-114.615-256-256-256z" fill="#00337a"/><g><g><path d="m378.5 151h-200c-8.284 0-15-6.716-15-15s6.716-15 15-15h200c8.284 0 15 6.716 15 15s-6.716 15-15 15z" fill="#fff16b"/><circle cx="128.5" cy="136" fill="#fff16b" r="15"/><path d="m378.5 211h-200c-8.284 0-15-6.716-15-15s6.716-15 15-15h200c8.284 0 15 6.716 15 15s-6.716 15-15 15z" fill="#f9f9f9"/><circle cx="128.5" cy="196" fill="#f9f9f9" r="15"/><path d="m378.5 271h-200c-8.284 0-15-6.716-15-15s6.716-15 15-15h200c8.284 0 15 6.716 15 15s-6.716 15-15 15z" fill="#bceaf9"/><circle cx="128.5" cy="256" fill="#bceaf9" r="15"/><path d="m378.5 331h-200c-8.284 0-15-6.716-15-15s6.716-15 15-15h200c8.284 0 15 6.716 15 15s-6.716 15-15 15z" fill="#f9f9f9"/><circle cx="128.5" cy="316" fill="#f9f9f9" r="15"/><g fill="#ff6b6b"><path d="m378.5 391h-200c-8.284 0-15-6.716-15-15s6.716-15 15-15h200c8.284 0 15 6.716 15 15s-6.716 15-15 15z"/><circle cx="128.5" cy="376" r="15"/></g></g></g><g><path d="m393.5 136c0-8.284-6.716-15-15-15h-122.5v30h122.5c8.284 0 15-6.716 15-15z" fill="#ffb454"/><path d="m393.5 196c0-8.284-6.716-15-15-15h-122.5v30h122.5c8.284 0 15-6.716 15-15z" fill="#e2dff4"/><path d="m393.5 256c0-8.284-6.716-15-15-15h-122.5v30h122.5c8.284 0 15-6.716 15-15z" fill="#8bb9ff"/><path d="m393.5 316c0-8.284-6.716-15-15-15h-122.5v30h122.5c8.284 0 15-6.716 15-15z" fill="#e2dff4"/><path d="m393.5 376c0-8.284-6.716-15-15-15h-122.5v30h122.5c8.284 0 15-6.716 15-15z" fill="#ff1f3d"/></g></g></svg>