<svg id="Layer_1" enable-background="new 0 0 511.448 511.448" height="512" viewBox="0 0 511.448 511.448" width="512" xmlns="http://www.w3.org/2000/svg"><path d="m74.941 436.508c99.913 99.913 261.64 99.927 361.567 0 99.913-99.913 99.928-261.64 0-361.567-99.913-99.913-261.639-99.927-361.567 0-99.914 99.911-99.929 261.639 0 361.567zm39.486-197.037 117.333-96c13.695-11.208 34.298-1.419 34.298 16.253v51.685l83.036-67.938c13.569-11.103 34.298-1.538 34.298 16.253v192c0 17.682-20.607 27.456-34.298 16.253l-83.036-67.938v51.685c0 17.682-20.606 27.455-34.298 16.253l-117.333-96c-10.301-8.427-10.231-24.136 0-32.506z"/></svg>