<svg id="Capa_1" enable-background="new 0 0 512 512" height="512" viewBox="0 0 512 512" width="512" xmlns="http://www.w3.org/2000/svg"><g><circle cx="256" cy="256" fill="#ffc265" r="256"/><path d="m256 484.129c-136.709 0-248.381-107.161-255.619-242.065-.247 4.615-.381 9.26-.381 13.936 0 141.385 114.615 256 256 256s256-114.615 256-256c0-4.676-.134-9.321-.381-13.935-7.238 134.903-118.91 242.064-255.619 242.064z" fill="#ffb541"/><circle cx="256" cy="256" fill="#ffe9c8" r="214.493"/><path d="m256 442.622c-113.778 0-206.848-88.593-214.03-200.557-.296 4.609-.463 9.252-.463 13.935 0 118.461 96.032 214.493 214.493 214.493s214.493-96.032 214.493-214.493c0-4.683-.167-9.327-.463-13.935-7.182 111.964-100.252 200.557-214.03 200.557z" fill="#ffdca7"/><g><g fill="#ff4755"><path d="m217.613 199.212h88.875v14.64c0 4.747 5.236 7.628 9.246 5.088l51.125-32.379c3.734-2.365 3.734-7.812 0-10.177l-51.125-32.379c-4.01-2.54-9.246.341-9.246 5.088v14.64h-88.875c-53.916 0-97.78 43.864-97.78 97.781 0 9.797 7.942 17.739 17.739 17.739s17.739-7.942 17.739-17.739c0-34.352 27.949-62.302 62.302-62.302z"/><path d="m374.428 232.746c-9.797 0-17.739 7.942-17.739 17.739 0 34.353-27.949 62.302-62.302 62.302h-88.875v-14.64c0-4.747-5.236-7.628-9.246-5.088l-51.125 32.379c-3.734 2.365-3.734 7.812 0 10.177l51.125 32.379c4.01 2.54 9.246-.341 9.246-5.088v-14.64h88.875c53.917 0 97.78-43.863 97.78-97.78 0-9.797-7.942-17.74-17.739-17.74z"/></g></g><g fill="#fc2b3a"><path d="m366.859 176.385-6.635-4.202-44.49 28.177c-4.01 2.54-9.246-.341-9.246-5.088v-9.479c0-2.85-2.311-5.161-5.161-5.161h-83.713c-34.293 0-62.203 27.85-62.302 62.119-.028 9.736-7.938 17.887-17.674 17.922-7.906.028-14.605-5.119-16.926-12.244-.559 4.16-.861 8.4-.877 12.706-.038 9.701 7.663 17.913 17.363 18.114 9.969.206 18.115-7.813 18.115-17.735 0-34.353 27.949-62.303 62.302-62.303h88.875v14.64c0 4.747 5.236 7.628 9.246 5.089l51.125-32.379c3.731-2.364 3.731-7.811-.002-10.176z"/><path d="m294.387 329.685h-83.714c-2.85 0-5.161 2.311-5.161 5.161v9.478c0 4.747-5.236 7.628-9.246 5.089l-44.49-28.177-6.635 4.202c-3.734 2.365-3.734 7.812 0 10.177l51.125 32.379c4.01 2.54 9.246-.341 9.246-5.088v-14.64h88.875c53.917 0 97.78-43.863 97.78-97.78 0-1.92-.314-3.764-.878-5.495-6.415 47.751-47.422 84.694-96.902 84.694z"/></g></g></svg>